<svg width="30" height="30" viewBox="0 0 30 30" fill="none" xmlns="http://www.w3.org/2000/svg">
<g id="material-symbols:double-arrow">
<path id="Vector" d="M11.25 15H27.5M27.5 15L23.75 18.75M27.5 15L23.75 11.25M2.5 15C2.5 14.337 2.76339 13.7011 3.23224 13.2322C3.70108 12.7634 4.33696 12.5 5 12.5C5.66304 12.5 6.29893 12.7634 6.76777 13.2322C7.23661 13.7011 7.5 14.337 7.5 15C7.5 15.663 7.23661 16.2989 6.76777 16.7678C6.29893 17.2366 5.66304 17.5 5 17.5C4.33696 17.5 3.70108 17.2366 3.23224 16.7678C2.76339 16.2989 2.5 15.663 2.5 15Z" stroke="#E9ECFC" stroke-width="1.5" stroke-linecap="round" stroke-linejoin="round"/>
</g>
</svg>
